<svg width="18" height="12" viewBox="0 0 18 12" fill="none" xmlns="http://www.w3.org/2000/svg">
    <path d="M10.125 7.125a2.17 2.17 0 0 1-1.594-.656 2.17 2.17 0 0 1-.656-1.594c0-.625.219-1.156.656-1.594a2.17 2.17 0 0 1 1.594-.656 2.17 2.17 0 0 1 1.594.656c.437.438.656.969.656 1.594a2.17 2.17 0 0 1-.656 1.594 2.17 2.17 0 0 1-1.594.656zM3 9.75V0h14.25v9.75H3zm3-1.125h8.25c0-.525.181-.969.544-1.331a1.81 1.81 0 0 1 1.331-.544V3a1.81 1.81 0 0 1-1.331-.544 1.81 1.81 0 0 1-.544-1.331H6c0 .525-.181.969-.544 1.331A1.81 1.81 0 0 1 4.125 3v3.75c.525 0 .969.181 1.331.544C5.82 7.656 6 8.1 6 8.625zM.75 12V2.25h1.125v8.625H15V12H.75z" fill="#4FD1C5"/>
</svg>
