<svg width="12" height="12" viewBox="0 0 12 12" fill="none" xmlns="http://www.w3.org/2000/svg">
    <path d="m10.314 8-.114-.14c-.516-.623-.828-1-.828-2.765 0-.914-.218-1.664-.65-2.227-.317-.415-.747-.73-1.313-.963a.07.07 0 0 1-.02-.016C7.187 1.207 6.63.75 6 .75s-1.186.457-1.39 1.138a.073.073 0 0 1-.018.015c-1.322.544-1.964 1.588-1.964 3.191 0 1.766-.311 2.143-.827 2.766-.038.045-.076.09-.115.139a.824.824 0 0 0-.11.881.876.876 0 0 0 .806.494h7.24c.35 0 .655-.189.8-.492A.825.825 0 0 0 10.314 8zM6 11.25a1.876 1.876 0 0 0 1.65-.987.094.094 0 0 0-.082-.138H4.432a.094.094 0 0 0-.083.138A1.877 1.877 0 0 0 6 11.25z" fill="#fff"/>
</svg>
