<svg width="12" height="12" viewBox="0 0 12 12" fill="none" xmlns="http://www.w3.org/2000/svg">
    <g clip-path="url(#rkh98fc49a)">
        <path d="M6 4.125a1.875 1.875 0 1 0 0 3.75 1.875 1.875 0 0 0 0-3.75zM10.048 6a3.87 3.87 0 0 1-.038.524l1.14.893a.272.272 0 0 1 .063.346l-1.08 1.864a.273.273 0 0 1-.331.116l-1.342-.54c-.28.216-.585.394-.91.532l-.2 1.425a.28.28 0 0 1-.27.23H4.92a.281.281 0 0 1-.27-.223l-.2-1.424a3.967 3.967 0 0 1-.91-.532l-1.342.539a.273.273 0 0 1-.331-.115L.787 7.77a.272.272 0 0 1 .062-.346L1.99 6.53A4.092 4.092 0 0 1 1.952 6c0-.175.014-.35.038-.524L.85 4.583a.272.272 0 0 1-.063-.346l1.08-1.864a.273.273 0 0 1 .331-.116l1.342.54c.28-.216.585-.394.91-.532L4.65.84a.28.28 0 0 1 .27-.23h2.16a.281.281 0 0 1 .27.223l.2 1.424c.326.136.632.315.91.532l1.342-.539a.273.273 0 0 1 .33.115l1.08 1.864a.272.272 0 0 1-.061.346l-1.141.894c.024.176.037.353.038.531z" fill="#fff"/>
    </g>
    <defs>
        <clipPath id="rkh98fc49a">
            <path fill="#fff" d="M0 0h12v12H0z"/>
        </clipPath>
    </defs>
</svg>
