<svg width="12" height="13" viewBox="0 0 12 13" fill="none" xmlns="http://www.w3.org/2000/svg">
    <path d="M7.796 2.014A2.412 2.412 0 0 0 6 1.25c-.707 0-1.346.27-1.8.759-.459.495-.683 1.167-.63 1.893C3.674 5.335 4.764 6.5 6 6.5c1.236 0 2.324-1.165 2.43-2.597.053-.72-.172-1.39-.634-1.89zM10.125 11.749h-8.25a.727.727 0 0 1-.567-.26.828.828 0 0 1-.168-.683c.197-1.097.815-2.02 1.785-2.666.862-.575 1.954-.891 3.075-.891 1.121 0 2.213.316 3.075.89.97.648 1.588 1.57 1.785 2.667a.828.828 0 0 1-.168.682.726.726 0 0 1-.567.261z" fill="#fff"/>
</svg>
